<svg width="1442" height="479" viewBox="0 0 1442 479" fill="none" xmlns="http://www.w3.org/2000/svg">
<g clip-path="url(#clip0_1_3762)">
<path d="M1416.43 196.11C1402.34 196.11 1390.93 207.51 1390.93 221.59C1390.93 235.67 1402.33 247.07 1416.43 247.07C1430.53 247.07 1441.93 235.67 1441.93 221.59C1441.93 207.51 1430.5 196.11 1416.43 196.11ZM1416.43 243.12C1404.53 243.12 1394.86 233.48 1394.86 221.56C1394.86 209.64 1404.5 200 1416.43 200C1428.36 200 1438 209.64 1438 221.56C1438 233.48 1428.36 243.12 1416.43 243.12ZM1423.91 223.63C1423.57 223.26 1423.17 223.04 1422.64 222.95V222.18H1424.18C1425.48 222.18 1426.43 221.84 1427.18 221.13C1427.89 220.42 1428.23 219.46 1428.23 218.29V213.59C1428.23 212.17 1427.83 211.09 1427.03 210.32C1426.25 209.55 1425.11 209.18 1423.63 209.18H1405.4V233.24H1409.82V223.57H1418.91L1423.33 233.24H1428.74L1425 225.46C1424.63 224.63 1424.26 224.04 1423.92 223.67V223.64H1423.91V223.63ZM1409.82 220.05V212.73H1423.14C1423.36 212.73 1423.51 212.79 1423.6 212.88C1423.72 212.97 1423.75 213.16 1423.75 213.37V219.39C1423.75 219.64 1423.69 219.79 1423.6 219.92C1423.51 220.01 1423.32 220.04 1423.14 220.04H1409.82V220.05Z" fill="white"/>
<path fill-rule="evenodd" clip-rule="evenodd" d="M464.1 200.51H416.41V0.01H348.26V247.12H464.1V200.51ZM591.59 200.51H543.9V0.01H475.75V247.12H591.59V200.51ZM27.14 244.31C28.93 246.22 31.53 247.12 34.16 247.12H126.05C128.71 247.12 131.27 246.22 133.07 244.31C139.41 237.55 149.67 225.93 158.23 214.87C159.56 213.17 160.21 210.85 160.21 208.72V140.3H97.96V205.94H62.23V41.18H97.96V106.82H160.18V38.4C160.18 36.24 159.53 33.92 158.2 32.25C149.64 21.22 139.38 9.58 133.04 2.84C131.25 0.92 128.65 0.03 126.02 0.03H34.16C31.5 0.03 28.94 0.93 27.14 2.84C20.77 9.54 10.54 21.19 1.98 32.22C0.65 33.92 0 36.24 0 38.37V208.72C0 210.88 0.65 213.2 1.98 214.87C10.54 225.9 20.8 237.54 27.14 244.31ZM236.57 174.31H272.3V247.12H334.52V38.4C334.52 36.24 333.87 33.92 332.54 32.25C323.98 21.22 313.72 9.58 307.38 2.84C305.59 0.92 302.99 0.03 300.36 0.03H208.47C205.81 0.03 203.25 0.93 201.45 2.84C195.11 9.6 184.85 21.22 176.29 32.25C174.96 33.95 174.31 36.27 174.31 38.4V247.12H236.53V174.31H236.57ZM236.57 41.18H272.3V133.23H236.57V41.18ZM951.6 244.34C953.39 246.26 955.99 247.15 958.62 247.15H1050.51C1053.17 247.15 1055.73 246.25 1057.53 244.34C1063.87 237.58 1074.13 225.96 1082.69 214.9C1084.02 213.2 1084.67 210.88 1084.67 208.75V0H1022.46V205.94H986.73V0H924.51V208.75C924.51 210.91 925.16 213.23 926.49 214.9C935.05 225.93 945.31 237.57 951.65 244.34H951.6ZM883.05 244.34C889.39 237.58 899.65 225.96 908.21 214.9C909.54 213.2 910.19 210.88 910.19 208.75V38.4C910.19 36.24 909.54 33.92 908.21 32.25C899.65 21.22 889.39 9.58 883.05 2.84C881.26 0.89 878.66 0.03 876.03 0.03H750.02V247.11H876.03C878.69 247.11 881.25 246.21 883.05 244.3V244.33V244.34ZM847.94 205.98H812.24V41.19H847.94V205.98ZM1287.38 162.83V247.16H1354.39V162.83L1395.22 113.56C1396.58 111.92 1397.29 109.88 1397.29 107.78V0.01H1339.12V91.87L1324.1 109.82H1317.82L1302.68 91.87V0.01H1244.64V107.75C1244.64 109.85 1245.38 111.89 1246.71 113.53L1287.41 162.8L1287.38 162.83ZM585.61 154.95C586.41 155.81 587.56 156.22 588.73 156.22H635.25C636.42 156.22 637.6 155.82 638.37 154.95C641.21 151.92 643.5 148.99 647.33 144.08C647.92 143.31 648.23 142.29 648.23 141.33V64.2C648.23 63.24 647.92 62.22 647.33 61.45C643.53 56.54 641.18 53.57 638.37 50.58C637.57 49.72 636.42 49.31 635.25 49.31H588.73C587.56 49.31 586.38 49.71 585.61 50.58C582.77 53.61 580.48 56.54 576.65 61.45C576.06 62.22 575.75 63.24 575.75 64.2V141.3C575.75 142.26 576.06 143.28 576.65 144.05C580.48 148.96 582.8 151.93 585.61 154.92V154.95ZM603.54 72.38H620.48V133.14H603.54V72.35V72.38ZM687.92 120.94H717.68V96.14H687.92V74.18H721.51V49.31H660.1V156.16H687.89V120.88L687.92 120.94ZM1134.16 247.15H1196.37V50.6H1232.5V0H1098.03V50.6H1134.16V247.15Z" fill="white"/>
<path d="M201.15 324.9H184.94L145.69 419.78H139.8L100.73 324.9H84.3401V360L121.03 449.1H164.09L201.15 359.47V324.9Z" fill="white"/>
<path d="M209.6 398.69H209.38V449.1H241.5V324.9H209.6V398.69Z" fill="white"/>
<path d="M75.9 324.9H43.78V449.1H75.9V324.9Z" fill="white"/>
<path d="M748.71 324.9H715.84V449.1H748.71V324.9Z" fill="white"/>
<path d="M661.21 392.96C658.17 389.59 653.4 387.91 646.89 387.91H645.9V384.45H646.47C652.71 384.45 657.23 382.86 660.06 379.64C662.88 376.44 664.27 371.28 664.27 364.15V348.18C664.27 343.26 663.28 339.07 661.29 335.59C659.35 332.13 656.42 329.46 652.51 327.65C648.65 325.84 643.86 324.91 638.19 324.91H506.29V449.11H538.9V347.68H628.66C629.61 347.68 630.29 347.92 630.73 348.43C631.22 348.87 631.48 349.56 631.48 350.51V372.13C631.48 373.08 631.23 373.78 630.73 374.27C630.29 374.71 629.61 374.93 628.66 374.93H547.3V397.45H630.05C631 397.45 631.68 397.69 632.13 398.2C632.61 398.64 632.88 399.3 632.88 400.19V423.55C632.88 424.5 632.66 425.2 632.22 425.69C631.78 426.13 631.05 426.35 630.08 426.35H547.33V449.12H639.52C644.92 449.12 649.6 448.24 653.51 446.47C657.48 444.66 660.53 441.99 662.62 438.53C664.78 435 665.84 430.77 665.84 425.87V408.64C665.84 401.51 664.3 396.31 661.21 392.98V392.96Z" fill="white"/>
<path d="M834.33 423.09H834.31V324.9H801.42V449.1H834.33V423.09Z" fill="white"/>
<path d="M925.34 423.09H842.72V449.08H925.34V423.09Z" fill="white"/>
<path d="M1110.56 425.16H1015.59V449.1H1110.56V425.16Z" fill="white"/>
<path d="M1107.4 374.82H1015.59V398.82H1107.4V374.82Z" fill="white"/>
<path d="M974.3 324.9V449.1H1007.1V348.84H1110.52V324.9H974.3Z" fill="white"/>
<path d="M367.46 423.93H326.94C326.06 423.93 325.37 423.71 324.87 423.27C324.43 422.79 324.21 422.1 324.21 421.28V350.07H367.47V324.24H316.36C308.35 324.24 302.18 326.42 297.81 330.77C293.51 335.07 291.35 341.16 291.35 349.08V424.92C291.35 432.82 293.49 438.93 297.81 443.3C302.18 447.6 308.35 449.76 316.36 449.76H367.47V423.93H367.46Z" fill="white"/>
<path d="M445.55 330.77C441.23 326.4 435.09 324.24 427.08 324.24H375.95V350.07H416.5C417.39 350.07 418.04 350.31 418.49 350.82C418.98 351.26 419.24 351.9 419.24 352.72V423.93H375.98V449.76H427.11C435.12 449.76 441.27 447.6 445.58 443.3C449.95 438.93 452.11 432.82 452.11 424.92V349.08C452.11 341.18 449.93 335.1 445.58 330.77H445.55Z" fill="white"/>
<path d="M1272.13 290.64L1190.77 337.61V431.55L1272.13 478.52L1353.48 431.55V337.61L1272.13 290.64ZM1247.04 422.29L1228.32 434.24L1214.94 425.52V344.89L1228.28 336.29L1247.03 348V422.3H1247.04V422.29ZM1292.48 401.06L1272.15 412L1251.82 401.06V350.46L1272.15 361.4L1292.48 350.46V401.06ZM1329.3 425.52L1315.92 434.26L1297.19 422.31V348.02L1315.95 336.31L1329.29 344.91V425.53H1329.3V425.52Z" fill="#FFE93B"/>
<path d="M1368.44 427.8H1376.82V449.1H1380.51V427.8H1388.87V424.46H1368.43V427.8H1368.44Z" fill="white"/>
<path d="M1414.78 424.45L1407.91 444.8H1407.02L1400.15 424.45H1393.63V449.09H1397.16V428.79H1398.12L1404.97 449.09H1409.92L1416.77 428.79H1417.7V449.09H1421.27V424.45H1414.78Z" fill="white"/>
</g>
<defs>
<clipPath id="clip0_1_3762">
<rect width="1441.93" height="478.52" fill="white"/>
</clipPath>
</defs>
</svg>
