<svg width="240" height="79" viewBox="0 0 240 79" fill="none" xmlns="http://www.w3.org/2000/svg">
<g clip-path="url(#clip0_1356_1010)">
<path d="M79.5263 31.3826H100.634C103.334 31.3826 105.378 32.0001 106.757 33.2322C108.161 34.4643 108.863 36.1993 108.863 38.4312V52.3404C108.863 53.6137 108.641 54.69 108.202 55.5663C107.763 56.422 107.061 57.0807 106.097 57.5394C105.133 57.9776 103.897 58.1981 102.391 58.1981H102.14V60.0154C102.895 60.0978 103.482 60.2448 103.9 60.4536C104.319 60.6624 104.676 60.9976 104.968 61.4563C105.283 61.8945 105.563 62.5532 105.817 63.4295L110.372 78.3737H98.5314L93.9143 60.4536H90.7419V78.3737H79.5292V31.3826H79.5263ZM96.9894 51.5582C97.2401 51.5582 97.4081 51.5053 97.4907 51.4023C97.5968 51.2965 97.6469 51.1318 97.6469 50.9024V41.5365C97.6469 41.2866 97.5939 41.1072 97.4907 41.0043C97.4081 40.8984 97.2401 40.8484 96.9894 40.8484H90.7389V51.5611H96.9894V51.5582Z" fill="white"/>
<path d="M148.191 78.4001C145.682 78.4001 143.73 77.7179 142.341 76.3505C140.973 74.9655 140.286 73.0805 140.286 70.7015V39.0457C140.286 36.6462 140.97 34.7642 142.341 33.3968C143.73 32.0323 145.682 31.3472 148.191 31.3472H161.821C164.371 31.3472 166.332 32.0294 167.703 33.3968C169.071 34.7612 169.758 36.6462 169.758 39.0457V70.7015C169.758 73.0805 169.074 74.9625 167.703 76.3505C166.335 77.7149 164.374 78.4001 161.821 78.4001H148.191ZM157.867 68.6549C158.115 68.6549 158.292 68.6019 158.395 68.499C158.498 68.3755 158.551 68.2108 158.551 68.0021V41.7452C158.551 41.5188 158.498 41.3512 158.395 41.2483C158.292 41.1453 158.115 41.0924 157.867 41.0924H152.174C151.947 41.0924 151.77 41.1453 151.646 41.2483C151.543 41.3512 151.49 41.5159 151.49 41.7452V68.0021C151.49 68.2079 151.543 68.3755 151.646 68.499C151.77 68.6019 151.947 68.6549 152.174 68.6549H157.867Z" fill="white"/>
<path d="M172.388 31.3826H188.094L192.522 61.2064H194.029V31.3826H203.891V78.3737H188.185L183.757 48.5499H182.25V78.3737H172.388V31.3826Z" fill="white"/>
<path d="M206.574 31.3823H231.293V41.0923H217.693V49.9583H230.789V59.6682H217.693V68.6577H231.293V78.3706H206.574V31.3794V31.3823Z" fill="white"/>
<path d="M37.5533 31.3826L33.4492 61.174H32.7652L30.1264 31.3826H18.6425L16.0037 61.174H15.3197L11.2156 31.3826H0L7.91047 78.3737H21.4081L23.9201 48.5499H24.8459L27.3579 78.3737H40.8555L48.766 31.3826H37.5504H37.5533Z" fill="white"/>
<path d="M123.914 68.4109L137.922 39.8722V31.3826H111.286V41.3454H125.011L110.635 70.6987L112.976 78.3679L138.045 78.3737V68.4109H123.911H123.914Z" fill="white"/>
<path d="M233.328 75.6917H234.386V78.3707H234.852V75.6917H235.911V75.2712H233.328V75.6917Z" fill="white"/>
<path d="M239.177 75.2712L238.311 77.8296H238.202L237.335 75.2712H236.509V78.3707H236.957V75.8182H237.078L237.942 78.3707H238.564L239.428 75.8182H239.546V78.3707H240V75.2712H239.177Z" fill="white"/>
<path d="M65.442 78.3706H76.8875V69.9751L70.3097 31.3794H51.7468L45.2191 69.9751V78.3706H56.2047L57.0774 69.9751H64.5575L65.439 78.3706H65.442ZM58.0534 60.6386L60.0612 41.3422H61.5619L63.5845 60.6386H58.0534Z" fill="white"/>
<path d="M183.359 18.676C182.014 18.676 180.927 19.7611 180.927 21.102C180.927 22.443 182.014 23.5281 183.359 23.5281C184.703 23.5281 185.791 22.443 185.791 21.102C185.791 19.7611 184.7 18.676 183.359 18.676ZM183.359 23.1517C182.224 23.1517 181.301 22.2342 181.301 21.0991C181.301 19.964 182.221 19.0465 183.359 19.0465C184.497 19.0465 185.417 19.964 185.417 21.0991C185.417 22.2342 184.497 23.1517 183.359 23.1517ZM184.072 21.2961C184.04 21.2608 184.002 21.2402 183.952 21.2314V21.1579H184.099C184.223 21.1579 184.314 21.1256 184.385 21.0579C184.453 20.9903 184.485 20.8991 184.485 20.7874V20.3404C184.485 20.2052 184.447 20.1022 184.37 20.0287C184.296 19.9552 184.187 19.9199 184.046 19.9199H182.306V22.2107H182.728V21.2902H183.595L184.016 22.2107H184.532L184.176 21.4696C184.14 21.3902 184.105 21.3344 184.072 21.2991V21.2961ZM182.728 20.955V20.2581H183.999C184.019 20.2581 184.034 20.264 184.043 20.2728C184.055 20.2816 184.058 20.2993 184.058 20.3198V20.8933C184.058 20.9168 184.052 20.9315 184.043 20.9432C184.034 20.9521 184.016 20.955 183.999 20.955H182.728Z" fill="white"/>
<path fill-rule="evenodd" clip-rule="evenodd" d="M93.2893 19.0876H88.7399V0H82.2388V23.525H93.2893V19.0876ZM105.451 19.0876H100.902V0H94.4008V23.525H105.451V19.0876ZM51.6053 23.2603C51.7763 23.4427 52.0239 23.5279 52.2745 23.5279H61.04C61.2936 23.5279 61.5383 23.4427 61.7093 23.2603C62.3137 22.6163 63.2926 21.5107 64.1093 20.4579C64.2361 20.2962 64.298 20.0756 64.298 19.8727V13.3593H58.3629V19.6081H54.9546V3.91985H58.3629V10.1687H64.298V3.6552C64.298 3.44935 64.2361 3.22881 64.1093 3.07001C63.2926 2.02021 62.3137 0.911594 61.7093 0.270537C61.5383 0.0882187 61.2907 0.00294062 61.04 0.00294062H52.2745C52.021 0.00294062 51.7763 0.0882187 51.6053 0.270537C51.0009 0.914534 50.022 2.02021 49.2053 3.07295C49.0785 3.23469 49.0166 3.45523 49.0166 3.65814V19.8757C49.0166 20.0815 49.0785 20.3021 49.2053 20.4609C50.022 21.5107 51.0009 22.6193 51.6053 23.2633V23.2603ZM71.5834 16.5969H74.9917V23.5279H80.9268V3.65814C80.9268 3.45229 80.8649 3.23175 80.7381 3.07295C79.9214 2.02315 78.9425 0.914534 78.3381 0.273478C78.1671 0.0911594 77.9194 0.00588125 77.6688 0.00588125H68.9033C68.6498 0.00588125 68.4051 0.0911594 68.2341 0.273478C67.6296 0.917475 66.6508 2.02315 65.8341 3.07295C65.7073 3.23469 65.6454 3.45523 65.6454 3.65814V23.5309H71.5805V16.5998H71.5834V16.5969ZM71.5834 3.92279H74.9917V12.6859H71.5834V3.92279ZM139.794 23.2633C139.965 23.4456 140.213 23.5309 140.463 23.5309H149.229C149.482 23.5309 149.727 23.4456 149.898 23.2633C150.502 22.6193 151.481 21.5136 152.298 20.4609C152.425 20.2991 152.487 20.0786 152.487 19.8757V0.00294062H146.552V19.6081H143.143V0.00294062H137.208V19.8757C137.208 20.0815 137.27 20.3021 137.397 20.4609C138.214 21.5107 139.192 22.6193 139.797 23.2633H139.794ZM133.254 23.2633C133.859 22.6193 134.838 21.5136 135.654 20.4609C135.781 20.2991 135.843 20.0786 135.843 19.8757V3.65814C135.843 3.45229 135.781 3.23175 135.654 3.07295C134.838 2.02315 133.859 0.914534 133.254 0.273478C133.083 0.0882187 132.836 0.00588125 132.585 0.00588125H120.565V23.5309H132.585C132.839 23.5309 133.083 23.4456 133.254 23.2633ZM129.905 19.611H126.5V3.92573H129.905V19.611ZM171.825 15.503V23.5309H178.217V15.503L182.112 10.8127C182.242 10.6568 182.309 10.4627 182.309 10.2628V0.00588125H176.76V8.7513L175.328 10.4598H174.729L173.284 8.7513V0.00588125H167.747V10.2628C167.747 10.4627 167.818 10.6568 167.945 10.8127L171.828 15.503H171.825ZM104.879 14.7531C104.956 14.8355 105.065 14.8737 105.177 14.8737H109.614C109.726 14.8737 109.838 14.8355 109.912 14.7531C110.183 14.4649 110.402 14.1856 110.767 13.718C110.823 13.6445 110.853 13.5475 110.853 13.4563V6.1165C110.853 6.02534 110.823 5.9283 110.767 5.85478C110.405 5.38722 110.18 5.10492 109.912 4.81968C109.836 4.73735 109.726 4.69912 109.614 4.69912H105.177C105.065 4.69912 104.953 4.73735 104.879 4.81968C104.608 5.10787 104.39 5.38722 104.024 5.85478C103.968 5.9283 103.939 6.02534 103.939 6.1165V13.4563C103.939 13.5475 103.968 13.6445 104.024 13.718C104.39 14.1856 104.611 14.4679 104.879 14.7531ZM106.589 6.89283H108.205V12.677H106.589V6.89283ZM114.638 11.5155H117.478V9.15417H114.638V7.06338H117.843V4.70206H111.985V14.8737H114.635V11.5155H114.638ZM157.207 23.5309H163.142V4.82262H166.589V0.00588125H153.76V4.82262H157.207V23.5309Z" fill="white"/>
</g>
<defs>
<clipPath id="clip0_1356_1010">
<rect width="240" height="78.4" fill="white"/>
</clipPath>
</defs>
</svg>
